# 3ds Max Wavefront OBJ Exporter v0.97b - (c)2007 guruware
# File Created: 22.11.2016 00:04:47

mtllib cornellbox.mtl

#
# object ceiling_Mesh
#

v  -1.00000 2.00000 -1.00000
v  1.00000 2.00000 -1.00000
v  1.00000 2.00000 1.00000
v  -1.00000 2.00000 1.00000
# 4 vertices

vn 0.00000 -1.00000 -0.00000
# 1 vertex normals

vt 0.32937 0.33809 0.00000
vt 0.65319 0.33809 0.00000
vt 0.65319 0.66191 0.00000
vt 0.32937 0.66191 0.00000
# 4 texture coords

g ceiling_Mesh
usemtl white
s 1
f 1/1/1 2/2/1 3/3/1 
f 3/3/1 4/4/1 1/1/1 
# 2 faces

#
# object floor_Mesh
#

v  1.00000 0.00000 1.00000
v  1.00000 0.00000 -1.00000
v  -1.00000 0.00000 -1.00000
v  -1.00000 0.00000 1.00000
# 4 vertices

vn 0.00000 1.00000 -0.00000
# 1 vertex normals

vt 0.98133 0.33809 0.00000
vt 0.98133 0.66191 0.00000
vt 0.65751 0.66191 0.00000
vt 0.65751 0.33809 0.00000
# 4 texture coords

g floor_Mesh
usemtl white
s 1
f 5/5/2 6/6/2 7/7/2 
f 7/7/2 8/8/2 5/5/2 
# 2 faces

#
# object frontWall_Mesh
#

v  1.00000 0.00000 -1.00000
v  1.00000 2.00000 -1.00000
v  -1.00000 2.00000 -1.00000
v  -1.00000 0.00000 -1.00000
# 4 vertices

vn 0.00000 0.00000 1.00000
# 1 vertex normals

vt 0.65319 0.66623 0.00000
vt 0.65319 0.99005 0.00000
vt 0.32937 0.99005 0.00000
vt 0.32937 0.66623 0.00000
# 4 texture coords

g frontWall_Mesh
usemtl white
s 1
f 9/9/3 10/10/3 11/11/3 
f 11/11/3 12/12/3 9/9/3 
# 2 faces

#
# object leftWall_Mesh
#

v  -1.00000 0.00000 -1.00000
v  -1.00000 2.00000 -1.00000
v  -1.00000 2.00000 1.00000
v  -1.00000 0.00000 1.00000
# 4 vertices

vn 1.00000 0.00000 -0.00000
# 1 vertex normals

vt 0.98133 0.00995 0.00000
vt 0.98133 0.33377 0.00000
vt 0.65751 0.33377 0.00000
vt 0.65751 0.00995 0.00000
# 4 texture coords

g leftWall_Mesh
usemtl white
s 1
f 13/13/4 14/14/4 15/15/4 
f 15/15/4 16/16/4 13/13/4 
# 2 faces

#
# object light_Mesh
#

v  -0.24000 1.99900 -0.22000
v  0.23000 1.99900 -0.22000
v  0.23000 1.99900 0.22000
v  -0.24000 1.99900 0.22000
# 4 vertices

vn 0.00000 -1.00000 -0.00000
# 1 vertex normals

vt 0.65751 0.66623 0.00000
vt 0.73361 0.66623 0.00000
vt 0.73361 0.72776 0.00000
vt 0.65751 0.72776 0.00000
# 4 texture coords

g light_Mesh
usemtl pi_light
s 1
f 17/17/5 18/18/5 19/19/5 
f 19/19/5 20/20/5 17/17/5 
# 2 faces

#
# object rightWall_Mesh
#

v  1.00000 0.00000 1.00000
v  1.00000 2.00000 1.00000
v  1.00000 2.00000 -1.00000
v  1.00000 0.00000 -1.00000
# 4 vertices

vn -1.00000 0.00000 -0.00000
# 1 vertex normals

vt 0.65319 0.00995 0.00000
vt 0.65319 0.33377 0.00000
vt 0.32937 0.33377 0.00000
vt 0.32937 0.00995 0.00000
# 4 texture coords

g rightWall_Mesh
usemtl white
s 1
f 21/21/6 22/22/6 23/23/6 
f 23/23/6 24/24/6 21/21/6 
# 2 faces
